<?xml version="1.0" standalone="no"?>
<!DOCTYPE svg PUBLIC "-//W3C//DTD SVG 20010904//EN"
 "http://www.w3.org/TR/2001/REC-SVG-20010904/DTD/svg10.dtd">
<svg version="1.0" xmlns="http://www.w3.org/2000/svg"
 width="724.000000pt" height="724.000000pt" viewBox="0 0 724.000000 724.000000"
 preserveAspectRatio="xMidYMid meet">
<metadata>
Created by potrace 1.14, written by Peter Selinger 2001-2017
</metadata>
<g transform="translate(0.000000,724.000000) scale(0.100000,-0.100000)"
fill="#000000" stroke="none">
<path d="M443 5969 c-29 -11 -53 -25 -53 -30 0 -5 -5 -9 -10 -9 -15 0 -62 -49
-97 -100 -35 -53 -61 -120 -67 -173 -4 -43 11 -133 27 -162 6 -11 12 -22 12
-25 1 -3 11 -25 22 -50 12 -25 21 -48 22 -53 0 -4 7 -20 15 -35 22 -39 67
-140 66 -147 0 -3 11 -25 25 -50 13 -25 24 -46 24 -48 -1 -4 21 -59 47 -115
58 -126 106 -235 104 -240 0 -1 11 -22 25 -47 13 -25 22 -45 19 -45 -3 0 6
-20 20 -45 15 -25 24 -45 21 -45 -3 0 6 -20 19 -45 14 -25 23 -45 21 -45 -3 0
5 -19 17 -42 12 -24 21 -46 20 -50 -1 -5 3 -8 10 -8 6 0 9 -3 5 -6 -3 -4 0
-19 9 -35 8 -16 14 -31 14 -34 0 -5 51 -111 75 -156 8 -14 12 -29 8 -33 -3 -3
0 -6 7 -6 7 0 11 -3 7 -6 -3 -4 3 -25 15 -48 11 -22 20 -42 19 -44 -1 -1 6
-17 16 -35 9 -17 16 -35 15 -39 -1 -5 3 -8 10 -8 6 0 9 -3 5 -6 -3 -4 5 -26
18 -50 14 -24 25 -46 24 -49 0 -8 29 -72 57 -127 13 -27 22 -48 19 -48 -2 0 4
-17 15 -37 21 -42 59 -130 59 -138 0 -3 12 -25 26 -50 13 -25 24 -46 23 -48
-1 -1 7 -20 17 -42 10 -22 26 -58 35 -80 10 -22 29 -62 41 -90 13 -27 23 -52
24 -55 1 -3 10 -23 20 -45 10 -22 19 -42 20 -45 0 -3 11 -25 22 -50 12 -25 21
-47 20 -50 -1 -3 9 -23 23 -45 14 -22 24 -41 22 -43 -1 -1 5 -19 14 -40 10
-20 16 -40 16 -44 -1 -5 3 -8 8 -8 5 0 9 -3 8 -7 -1 -5 5 -21 12 -38 7 -16 13
-33 12 -37 -1 -5 3 -8 8 -8 5 0 9 -3 8 -7 -1 -5 6 -25 15 -46 9 -20 17 -41 17
-45 1 -4 8 -18 15 -32 15 -27 59 -122 60 -130 0 -3 15 -35 33 -73 17 -37 32
-69 32 -71 0 -3 14 -35 32 -73 18 -37 32 -70 33 -73 2 -20 70 -141 92 -166 31
-34 81 -71 104 -76 8 -2 32 -15 54 -29 39 -25 96 -51 125 -57 19 -4 3470 -3
3490 1 8 1 21 6 28 10 6 5 12 6 12 2 0 -3 21 6 46 20 62 35 116 94 158 175 33
62 35 71 33 155 -2 72 -7 99 -25 135 -34 64 -116 146 -155 154 -7 2 -25 9 -42
16 -24 11 -338 13 -1673 14 l-1644 1 -20 28 c-11 15 -17 27 -14 27 4 0 -1 15
-11 33 -9 17 -16 35 -15 40 1 4 -3 7 -10 7 -6 0 -8 3 -5 6 4 4 0 19 -8 33 -22
39 -59 125 -57 134 1 4 -3 7 -8 7 -5 0 -9 3 -8 8 1 4 -5 21 -12 37 -7 17 -14
32 -15 35 0 3 -12 28 -25 55 -13 28 -24 52 -25 55 0 3 -11 27 -23 54 -12 27
-22 50 -22 52 0 3 -16 39 -36 82 -62 131 -112 244 -114 257 -1 6 -9 26 -19 45
-50 100 -66 135 -63 142 1 4 -3 8 -10 8 -6 0 -8 3 -5 6 4 4 0 19 -7 33 -24 44
-60 125 -62 139 -1 7 -9 24 -18 37 -9 13 -16 31 -16 40 0 8 -5 15 -12 15 -6 0
-9 3 -5 6 3 4 -5 26 -18 50 -14 24 -22 44 -19 44 3 0 -2 12 -10 28 -18 31 -59
126 -58 129 1 2 -7 19 -18 38 -11 20 -20 42 -20 50 0 8 -5 15 -10 15 -6 0 -9
3 -8 8 1 4 -6 25 -16 47 -9 22 -16 40 -14 40 1 0 -7 16 -18 35 -12 19 -25 46
-29 60 -4 14 -23 57 -42 97 -19 40 -34 75 -33 78 0 3 -11 25 -25 50 -13 25
-22 45 -19 45 2 0 -7 20 -21 45 -13 25 -25 49 -26 53 -1 4 -9 23 -17 42 -9 19
-16 37 -16 40 -1 3 -9 21 -18 40 -20 42 -61 133 -63 140 -1 3 -10 23 -20 45
-10 22 -19 42 -20 45 -1 3 -10 23 -20 45 -10 22 -19 42 -20 45 -1 5 -34 78
-63 140 -9 19 -17 37 -17 40 -1 3 -10 23 -20 45 -10 22 -17 43 -17 48 1 4 -2
7 -8 7 -6 0 -9 3 -8 8 1 4 -5 21 -12 37 -7 17 -14 32 -15 35 -3 8 -33 75 -62
138 -14 31 -27 59 -28 62 -21 52 -31 70 -37 70 -4 0 -8 5 -8 10 0 21 -103 109
-133 114 -7 1 -19 6 -27 11 -30 19 -171 15 -227 -6z"/>
<path d="M1797 5574 c-3 -3 -17 -7 -33 -10 -40 -7 -113 -51 -147 -88 -118
-129 -147 -279 -79 -412 40 -79 133 -150 221 -169 18 -4 1143 -7 2500 -7 2346
0 2470 1 2524 18 31 10 57 21 57 26 0 4 6 8 13 8 31 1 118 109 155 192 27 62
24 183 -6 250 -31 70 -93 131 -165 164 l-62 28 -2487 2 c-1367 1 -2489 0
-2491 -2z"/>
<path d="M2328 4565 c-2 -2 -15 -6 -28 -9 -77 -14 -151 -69 -206 -151 -45 -68
-60 -116 -63 -196 -5 -143 83 -266 224 -314 46 -16 189 -17 2030 -17 1089 1
1987 3 1995 5 8 2 32 7 53 12 20 4 37 11 37 17 0 5 5 6 10 3 6 -3 10 -1 10 4
0 6 5 11 10 11 18 0 79 61 114 115 120 180 62 404 -126 491 l-63 29 -1997 1
c-1098 1 -1998 0 -2000 -1z"/>
<path d="M2725 3503 c-11 -2 -26 -6 -33 -8 -7 -3 -13 -4 -15 -2 -7 6 -88 -52
-124 -89 -175 -181 -138 -450 77 -553 l55 -26 1581 -2 c1541 -3 1582 -2 1637
16 60 21 69 26 125 81 42 40 98 139 108 190 31 155 -43 302 -186 369 l-55 26
-1575 1 c-866 1 -1584 -1 -1595 -3z"/>
<path d="M5019 1685 c-2 -2 -17 -5 -34 -8 -55 -9 -175 -62 -175 -77 0 -6 -5
-10 -10 -10 -15 0 -81 -75 -113 -128 -50 -85 -71 -204 -52 -289 3 -13 7 -31 9
-40 8 -37 39 -103 47 -103 5 0 9 -6 9 -13 0 -22 103 -111 160 -139 80 -38 194
-53 270 -35 62 15 101 30 114 42 8 8 19 15 23 15 15 0 97 82 131 130 61 86 87
206 69 315 -20 121 -121 251 -234 301 -32 15 -67 28 -78 30 -34 6 -133 13
-136 9z m106 -251 c35 -16 98 -74 93 -85 -2 -3 3 -13 11 -22 21 -26 21 -116 1
-157 -64 -126 -260 -134 -338 -14 -28 43 -34 65 -32 123 2 62 46 141 80 141 5
0 10 5 10 11 0 5 4 8 8 5 4 -2 14 -1 22 5 24 14 109 10 145 -7z"/>
<path d="M2667 1664 c-1 -2 -18 -6 -37 -9 -19 -3 -40 -11 -47 -17 -7 -6 -13
-7 -13 -3 0 7 -62 -29 -94 -55 -96 -78 -154 -190 -160 -311 -4 -64 12 -149 35
-191 8 -13 13 -26 14 -29 0 -13 51 -74 84 -104 19 -16 41 -37 50 -45 9 -8 45
-28 81 -45 87 -40 211 -45 303 -13 34 11 64 25 65 29 2 5 10 9 18 9 8 0 14 5
14 10 0 6 5 10 11 10 6 0 31 21 56 47 71 75 112 167 118 271 4 63 -16 164 -37
189 -6 7 -7 13 -4 13 4 0 0 7 -8 16 -9 8 -16 21 -16 28 0 19 -123 132 -170
156 -58 30 -148 51 -208 49 -28 -2 -53 -4 -55 -5z m140 -237 c102 -25 156
-163 103 -266 -17 -34 -31 -49 -85 -88 -14 -10 -30 -14 -81 -20 -54 -7 -123
24 -159 70 -32 43 -44 125 -26 180 19 55 79 112 129 123 8 1 16 4 18 7 5 5 71
1 101 -6z"/>
</g>
</svg>
